<svg width="200" height="200" xmlns="http://www.w3.org/2000/svg">
 <g>
  <title>background</title>
  <rect x="-1" y="-1" width="202" height="202" id="canvas_background" fill="none"/>
 </g>

 <g>
  <title>Layer 1</title>
  <path stroke="null" transform="rotate(-25 139.68875122070307,62.182151794433565) " id="svg_6" d="m166.68875,101.25702l0,0c-29.82072,0 -53.99999,-17.49134 -53.99999,-39.07487c0,-21.58076 24.17927,-39.07486 53.99999,-39.07486l0,0c-16.99484,9.22401 -26.99814,23.70151 -26.99814,39.07486s10.0033,29.84809 26.99814,39.07487z" fill-opacity="null" stroke-opacity="null" stroke-width="null" fill="#7a66b0"/>
  <path d="m133.307,139.99l-89.32,0c-0.58,0 -1.072,-0.08 -1.447,-0.149c-17.201,-1.33 -30.66,-16.169 -30.66,-34.111c0,-13.92 8.07,-26.397 20.3,-31.745c4.647,-19.238 21.349,-32.98 40.497,-32.98c15.268,0 29.364,8.865 36.652,22.82c10.422,-0.532 19.96,4.411 25.393,12.646c17.511,0.673 31.543,14.706 31.543,31.857c0,17.574 -14.838,31.661 -32.958,31.661l0,0.001z" fill="#747677" id="svg_2"/>
  <path d="m53,178.149l18.677,-8.054l3.187,-27.146l-21.864,16.617l0,18.583zm42,0l18.677,-8.054l3.187,-27.146l-21.864,16.617l0,18.583z" fill="#0082c6" id="svg_3"/>
 </g>
</svg>