<svg width="200" height="200" xmlns="http://www.w3.org/2000/svg">
 <g>
  <title>background</title>
  <rect x="-1" y="-1" width="202" height="202" id="canvas_background" fill="none"/>
 </g>

 <g>
  <title>Layer 1</title>
  <path stroke="null" transform="rotate(-25 139.68875122070307,62.182151794433565) " id="svg_6" d="m166.68875,101.25702l0,0c-29.82072,0 -53.99999,-17.49134 -53.99999,-39.07487c0,-21.58076 24.17927,-39.07486 53.99999,-39.07486l0,0c-16.99484,9.22401 -26.99814,23.70151 -26.99814,39.07486s10.0033,29.84809 26.99814,39.07487z" fill-opacity="null" stroke-opacity="null" stroke-width="null" fill="#7a66b0"/>
  <path d="m133.307,140.99l-89.32,0c-0.58,0 -1.072,-0.08 -1.447,-0.149c-17.201,-1.33 -30.66,-16.169 -30.66,-34.111c0,-13.92 8.07,-26.397 20.3,-31.745c4.647,-19.238 21.349,-32.98 40.497,-32.98c15.268,0 29.364,8.865 36.652,22.82c10.422,-0.532 19.96,4.411 25.393,12.646c17.511,0.673 31.543,14.706 31.543,31.857c0,17.574 -14.838,31.661 -32.958,31.661l0,0.001z" fill="#aaa" id="svg_2"/>
  <path d="m83,164.572a2.414,2.414 0 0 1 -2.427,2.428l-8.198,0l5.793,5.812c0.962,0.94 0.962,2.393 0,3.355c-0.48,0.458 -1.099,0.71 -1.717,0.71c-0.618,0 -1.176,-0.252 -1.658,-0.71l-5.793,-5.812l0,8.217c0,1.334 -1.165,2.428 -2.516,2.428c-1.354,0 -2.484,-1.071 -2.484,-2.428l0,-8.217l-5.816,5.812c-0.487,0.481 -1.014,0.71 -1.63,0.71a2.502,2.502 0 0 1 -1.717,-0.71a2.367,2.367 0 0 1 0,-3.378l5.814,-5.789l-8.224,0c-1.325,0 -2.427,-1.186 -2.427,-2.515c0,-1.357 1.102,-2.485 2.427,-2.485l8.224,0l-5.814,-5.818c-0.944,-0.94 -0.944,-2.387 0,-3.35c0.962,-0.938 2.402,-0.938 3.347,0l5.816,5.82l0,-8.223c0,-1.351 1.13,-2.428 2.484,-2.428c1.329,0 2.516,1.077 2.516,2.428l0,8.2l5.793,-5.795c0.962,-0.94 2.436,-0.94 3.375,0c0.962,0.94 0.962,2.433 0,3.372l-5.793,5.794l8.198,0a2.425,2.425 0 0 1 2.427,2.428l0,0.144zm0,-0.08zm41,0.08a2.414,2.414 0 0 1 -2.427,2.428l-8.198,0l5.793,5.812c0.962,0.94 0.962,2.393 0,3.355c-0.48,0.458 -1.099,0.71 -1.717,0.71c-0.618,0 -1.176,-0.252 -1.658,-0.71l-5.793,-5.812l0,8.217c0,1.334 -1.165,2.428 -2.516,2.428c-1.354,0 -2.484,-1.071 -2.484,-2.428l0,-8.217l-5.816,5.812c-0.487,0.481 -1.014,0.71 -1.63,0.71a2.502,2.502 0 0 1 -1.717,-0.71a2.367,2.367 0 0 1 0,-3.378l5.814,-5.789l-8.224,0c-1.325,0 -2.427,-1.186 -2.427,-2.515c0,-1.357 1.102,-2.485 2.427,-2.485l8.224,0l-5.814,-5.818c-0.944,-0.94 -0.944,-2.387 0,-3.35c0.962,-0.938 2.402,-0.938 3.347,0l5.816,5.819l0,-8.223c0,-1.351 1.13,-2.428 2.484,-2.428c1.329,0 2.516,1.077 2.516,2.428l0,8.2l5.793,-5.795c0.962,-0.94 2.436,-0.94 3.375,0c0.962,0.94 0.962,2.433 0,3.372l-5.793,5.795l8.198,0a2.425,2.425 0 0 1 2.427,2.428l0,0.144zm-41,-0.16z" fill="#37c6ff" id="svg_3"/>
 </g>
</svg>