<svg width="200" height="200" xmlns="http://www.w3.org/2000/svg">
 <defs>
  <filter height="200%" width="200%" y="-50%" x="-50%" id="svg_5_blur">
   <feGaussianBlur stdDeviation="0" in="SourceGraphic"/>
  </filter>
 </defs>
 <g>
  <title>background</title>
  <rect fill="none" id="canvas_background" height="402" width="582" y="-1" x="-1"/>
 </g>
 <g>
  <title>Layer 1</title>
  <path stroke="null" filter="url(#svg_5_blur)" transform="rotate(-33.59964370727539 138.00816345214844,79.59661102294922) " id="svg_5" d="m165.747374,123.447594l0,0c-30.637162,0 -55.478413,-19.629301 -55.478413,-43.850977c0,-24.218573 24.841251,-43.850977 55.478413,-43.850977l0,0c-17.460134,10.351462 -27.737301,26.598541 -27.737301,43.850977s10.277167,33.496412 27.737301,43.850977z" stroke-opacity="null" stroke-width="null" fill="#7a66b0"/>
  <path id="svg_2" fill="#aaa" d="m133.307,161.99l-89.32,0c-0.58,0 -1.072,-0.08 -1.447,-0.149c-17.201,-1.33 -30.66,-16.168 -30.66,-34.111c0,-13.92 8.07,-26.397 20.3,-31.745c4.647,-19.238 21.349,-32.98 40.497,-32.98c15.268,0 29.364,8.865 36.652,22.82c10.422,-0.532 19.96,4.411 25.393,12.646c17.511,0.673 31.543,14.706 31.543,31.857c0,17.574 -14.838,31.661 -32.958,31.661l0,0.001z"/>
 </g>
</svg>