<svg width="200" height="200" xmlns="http://www.w3.org/2000/svg">

 <g>
  <title>background</title>
  <rect fill="none" id="canvas_background" height="202" width="202" y="-1" x="-1"/>
 </g>
 <g>
  <title>Layer 1</title>
  <path stroke="null" transform="rotate(-25 137.688751220703,79.18215942382811) " id="svg_6" d="m164.688755,118.257018l0,0c-29.820727,0 -53.999995,-17.491338 -53.999995,-39.074863c0,-21.58076 24.179268,-39.074863 53.999995,-39.074863l0,0c-16.994847,9.224012 -26.998143,23.701509 -26.998143,39.074863s10.003296,29.848086 26.998143,39.074863z" fill-opacity="null" stroke-opacity="null" stroke-width="null" fill="#7a66b0"/>
  <path id="svg_2" fill="#747677" d="m133.307,158.99l-89.32,0c-0.58,0 -1.072,-0.08 -1.447,-0.149c-17.201,-1.33 -30.66,-16.168 -30.66,-34.111c0,-13.92 8.07,-26.397 20.3,-31.745c4.647,-19.238 21.349,-32.98 40.497,-32.98c15.268,0 29.364,8.865 36.652,22.82c10.422,-0.532 19.96,4.411 25.393,12.646c17.511,0.673 31.543,14.706 31.543,31.857c0,17.574 -14.838,31.661 -32.958,31.661l0,0.001z"/>
 </g>
</svg>