<svg width="28" height="20" xmlns="http://www.w3.org/2000/svg" xmlns:xlink="http://www.w3.org/1999/xlink"><defs><rect id="a" x="0" y="0" width="28" height="20" rx="2"/></defs><g fill="none" fill-rule="evenodd"><mask id="b" fill="#fff"><use xlink:href="#a"/></mask><rect stroke="#F5F5F5" stroke-width=".5" x=".25" y=".25" width="27.5" height="19.5" rx="2"/><path fill="#38BB56" mask="url(#b)" d="M0 0h28v6.67H0z"/><path fill="#DE1B27" mask="url(#b)" d="M0 13.33h28V20H0z"/><path d="M1.33 5.67c0-.19.15-.34.34-.34h.66c.19 0 .34.15.34.34v.66c0 .19-.15.34-.34.34h-.66a.33.33 0 0 1-.34-.34v-.66zm2.67 0c0-.19.14-.34.34-.34H5c.18 0 .33.15.33.34v.66c0 .19-.14.34-.33.34h-.66A.33.33 0 0 1 4 6.33v-.66zm2.67 0c0-.19.14-.34.33-.34h.66c.19 0 .34.15.34.34v.66c0 .19-.14.34-.34.34H7a.33.33 0 0 1-.33-.34v-.66zm2.66 0c0-.19.15-.34.34-.34h.66c.19 0 .34.15.34.34v.66c0 .19-.15.34-.34.34h-.66a.33.33 0 0 1-.34-.34v-.66zm2.67 0c0-.19.14-.34.34-.34H13c.18 0 .33.15.33.34v.66c0 .19-.14.34-.33.34h-.66a.33.33 0 0 1-.34-.34v-.66zm2.67 0c0-.19.14-.34.33-.34h.66c.19 0 .34.15.34.34v.66c0 .19-.14.34-.34.34H15a.33.33 0 0 1-.33-.34v-.66zm2.66 0c0-.19.15-.34.34-.34h.66c.19 0 .34.15.34.34v.66c0 .19-.15.34-.34.34h-.66a.33.33 0 0 1-.34-.34v-.66zm2.67 0c0-.19.14-.34.34-.34H21c.18 0 .33.15.33.34v.66c0 .19-.14.34-.33.34h-.66a.33.33 0 0 1-.34-.34v-.66zm2.67 0c0-.19.14-.34.33-.34h.66c.19 0 .34.15.34.34v.66c0 .19-.14.34-.34.34H23a.33.33 0 0 1-.33-.34v-.66zm2.66 0c0-.19.15-.34.34-.34h.66c.19 0 .34.15.34.34v.66c0 .19-.15.34-.34.34h-.66a.33.33 0 0 1-.34-.34v-.66zm-24 8c0-.19.15-.34.34-.34h.66c.19 0 .34.15.34.34v.66c0 .19-.15.34-.34.34h-.66a.33.33 0 0 1-.34-.34v-.66zm2.67 0c0-.19.14-.34.34-.34H5c.18 0 .33.15.33.34v.66c0 .19-.14.34-.33.34h-.66a.33.33 0 0 1-.34-.34v-.66zm2.67 0c0-.19.14-.34.33-.34h.66c.19 0 .34.15.34.34v.66c0 .19-.14.34-.34.34H7a.33.33 0 0 1-.33-.34v-.66zm2.66 0c0-.19.15-.34.34-.34h.66c.19 0 .34.15.34.34v.66c0 .19-.15.34-.34.34h-.66a.33.33 0 0 1-.34-.34v-.66zm2.67 0c0-.19.14-.34.34-.34H13c.18 0 .33.15.33.34v.66c0 .19-.14.34-.33.34h-.66a.33.33 0 0 1-.34-.34v-.66zm2.67 0c0-.19.14-.34.33-.34h.66c.19 0 .34.15.34.34v.66c0 .19-.14.34-.34.34H15a.33.33 0 0 1-.33-.34v-.66zm2.66 0c0-.19.15-.34.34-.34h.66c.19 0 .34.15.34.34v.66c0 .19-.15.34-.34.34h-.66a.33.33 0 0 1-.34-.34v-.66zm2.67 0c0-.19.14-.34.34-.34H21c.18 0 .33.15.33.34v.66c0 .19-.14.34-.33.34h-.66a.33.33 0 0 1-.34-.34v-.66zm2.67 0c0-.19.14-.34.33-.34h.66c.19 0 .34.15.34.34v.66c0 .19-.14.34-.34.34H23a.33.33 0 0 1-.33-.34v-.66zm2.66 0c0-.19.15-.34.34-.34h.66c.19 0 .34.15.34.34v.66c0 .19-.15.34-.34.34h-.66a.33.33 0 0 1-.34-.34v-.66z" fill-opacity=".5" fill="#FFF" mask="url(#b)"/><path d="M12.79 8.86a1.67 1.67 0 1 0 2.44.02l-2.44-.02z" stroke="#D80915" stroke-width=".67" mask="url(#b)"/><rect fill="#D80915" mask="url(#b)" x="13.33" y="9.33" width="1.33" height="2.67" rx=".67"/></g></svg>