<svg width="512" height="512" xmlns="http://www.w3.org/2000/svg">

 <g>
  <title>background</title>
  <rect fill="none" id="canvas_background" height="402" width="582" y="-1" x="-1"/>
 </g>
 <g>
  <title>Layer 1</title>
  <g id="svg_26"/>
  <g id="svg_27"/>
  <g id="svg_28"/>
  <g id="svg_29"/>
  <g id="svg_30"/>
  <g id="svg_31"/>
  <g id="svg_32"/>
  <g id="svg_33"/>
  <g id="svg_34"/>
  <g id="svg_35"/>
  <g id="svg_36"/>
  <g id="svg_37"/>
  <g id="svg_38"/>
  <g id="svg_39"/>
  <g id="svg_40"/>
  <metadata transform="matrix(0.029127110487196184,0,0,0.029127110487196184,0,0) ">Svg Vector Icons : http://www.onlinewebfonts.com/icon</metadata>
  <g stroke="null" id="svg_55">
   <g stroke="null" transform="matrix(0.5168808121373826,0,0,0.5177318639352865,-4285.897785791297,-4294.877913055669) " id="svg_46">
    <g stroke="null" id="svg_47" transform="translate(0,512) scale(0.10000000149011612,-0.10000000149011612) ">
     <path stroke="null" fill="#0980bc" id="svg_48" d="m87525.69375,-77880.59375c-1956.5,-157.3 -3623.3,-1438.6 -4267.8,-3280c-293.5,-844 -347.2,-1799.2 -151.6,-2685.4c408.6,-1837.6 1870.2,-3299.3 3709.7,-3709.8c698.2,-155.4 1450.1,-155.4 2148.3,0c1837.6,410.5 3299.3,1872.2 3709.8,3709.8c155.4,698.2 155.4,1450.1 0,2148.3c-410.5,1839.5 -1872.2,3301.2 -3709.7,3709.7c-443.1,97.8 -1018.6,142 -1438.7,107.4zm1016.7,-431.6c801.8,-124.7 1538.4,-448.8 2165.6,-949.5c882.3,-705.9 1469.3,-1732.1 1645.8,-2877.2c46,-305 46,-961 0,-1266c-74.8,-489.1 -209.1,-913 -425.8,-1352.3c-659.9,-1337 -1910.5,-2248.1 -3404.7,-2478.3c-306.9,-46 -961,-46 -1266,1.9c-821,126.6 -1559.5,448.8 -2186.7,953.3c-890.1,715.6 -1463.6,1720.7 -1644,2875.4c-46,305 -46,959.1 0,1266c153.5,991.7 587,1852.9 1283.3,2547.3c763.4,765.4 1691.8,1196.9 2825.4,1315.9c163.1,17.3 813.3,-7.7 1007.1,-36.5z"/>
     <path stroke="null" fill="#0980bc" id="svg_49" d="m87621.69375,-79110.09375c-1548,-113.2 -2867.6,-1191.2 -3270.5,-2670.1c-140,-519.8 -172.6,-1118.3 -86.3,-1611.2c118.9,-673.3 420.1,-1300.5 880.4,-1824.2c182.2,-207.2 243.6,-241.7 352.9,-197.6c165,71 170.7,237.9 13.4,387.5c-174.6,165 -406.7,496.8 -556.3,794.1c-460.4,918.8 -458.4,2002.5 3.8,2927.1c594.6,1185.4 1877.9,1910.5 3176.4,1797.3c458.4,-40.3 807.6,-138.1 1225.7,-343.4c282,-136.2 324.2,-141.9 416.2,-49.9c38.4,38.4 49.9,69 49.9,134.3c0,115.1 -46,157.3 -331.8,293.5c-448.9,214.8 -861.3,326.1 -1356.1,364.4c-141.9,9.6 -272.4,17.3 -287.7,17.3c-15.2,-1.8 -118.8,-9.5 -230,-19.1z"/>
     <path stroke="null" fill="#0980bc" id="svg_50" d="m89365.29375,-80734.79375c-615.7,-450.8 -1129.8,-826.7 -1143.2,-834.4c-11.5,-7.7 -103.6,-3.8 -203.3,9.6c-301.1,38.4 -586.9,-38.4 -849.7,-224.4c-399,-285.8 -592.7,-847.8 -450.8,-1315.9l44.1,-147.7l-251.3,-450.8c-282,-508.3 -289.6,-535.2 -186.1,-638.7c103.6,-103.6 130.4,-95.9 638.7,186.1l450.8,251.3l147.7,-44.1c182.2,-55.6 450.8,-59.5 633,-9.6c429.7,117 759.6,445 876.6,876.6c30.7,113.2 36.5,299.2 21.1,583.1c-3.8,47.9 132.3,243.6 819.1,1175.8c918.8,1252.6 895.8,1214.2 773,1337c-128.6,128.5 -69.1,163 -1319.7,-753.9zm220.5,-351c-5.8,-11.5 -218.7,-303.1 -471.9,-646.4c-516,-704 -473.8,-611.9 -416.2,-909.2c118.9,-615.7 -525.6,-1129.8 -1116.4,-888.1c-65.2,26.9 -145.8,48 -178.4,48c-34.5,0 -130.4,-40.3 -230.2,-95.9c-94,-53.7 -174.6,-94 -178.4,-90.2c-3.8,3.8 36.5,84.4 90.2,178.4c55.6,99.7 95.9,195.6 95.9,230.2c0,32.6 -21.1,113.2 -48,178.4c-61.4,149.6 -78.6,322.3 -49.9,466.1c95.9,462.3 558.2,757.7 999.4,638.7c201.4,-53.7 166.9,-71 863.2,441.2c352.9,259 644.5,470 648.3,470s0.1,-9.7 -7.6,-21.2z"/>
     <path stroke="null" fill="#0980bc" id="svg_51" d="m87727.19375,-82405.49375c-322.3,-149.6 -314.6,-602.3 13.4,-738.5c257,-107.4 552.4,92.1 552.4,372.1c0,287.8 -306.9,485.3 -565.8,366.4z"/>
     <path stroke="null" fill="#0980bc" id="svg_52" d="m90761.69375,-80884.39375c-92.1,-92.1 -86.3,-134.3 49.9,-416.2c364.5,-742.3 446.9,-1496.2 249.4,-2286.5c-122.8,-493 -400.9,-1014.7 -730.8,-1371.5c-72.9,-78.6 -142,-163 -153.5,-186.1c-57.5,-107.4 -1.9,-234 120.8,-274.3c97.8,-32.6 170.7,13.4 345.3,211c855.5,966.8 1139.4,2347.8 736.6,3575.4c-88.2,268.5 -280.1,679 -351,750c-69.2,69.2 -197.7,67.3 -266.7,-1.8z"/>
     <path stroke="null" fill="#0980bc" id="svg_53" d="m86357.59375,-84851.09375c-95.9,-53.7 -95.9,-55.6 -97.8,-984c0,-633 5.8,-880.4 23,-916.9c44.1,-95.9 193.7,-136.2 280,-74.8c84.4,59.5 90.2,88.2 99.7,650.3l9.6,535.2l128.5,-172.6c132.3,-176.5 186.1,-218.7 283.9,-218.7c71,0 140,59.5 268.5,237.9c57.5,78.6 111.3,145.8 120.8,145.8c7.7,0 13.4,-241.7 13.4,-539l0,-539l65.2,-65.2c86.3,-86.3 176.5,-90.2 264.7,-9.6l63.3,55.6l5.8,868.9c3.8,633 0,884.3 -17.3,922.6c-53.7,130.4 -197.6,168.8 -301.1,82.5c-30.7,-26.8 -153.5,-176.5 -272.4,-335.7c-118.8,-157.4 -220.4,-287.8 -228.1,-287.8c-5.8,1.9 -111.3,136.2 -232.1,299.2c-120.8,165 -241.7,314.6 -266.6,335.7c-51.8,42.2 -143.9,46 -211,9.6z"/>
     <path stroke="null" fill="#0980bc" id="svg_54" d="m88404.29375,-84853.09375c-28.8,-17.2 -61.4,-46 -72.9,-67.1c-11.5,-23 -19.2,-354.9 -19.2,-924.6c0,-972.5 -3.8,-943.7 113.2,-993.6c38.4,-15.3 147.7,-21.1 351,-15.3c276.2,5.8 301.2,9.6 402.8,59.5c326.1,161.1 441.2,583.1 237.8,882.4l-48,71l48,71c207.2,305 82.5,738.5 -259,895.8c-76.7,34.5 -128.5,40.3 -395.1,44.1c-245.5,5.6 -316.4,-0.1 -358.6,-23.2zm615.7,-400.8c99.7,-51.8 130.4,-214.8 57.5,-305c-47.9,-63.3 -151.5,-94 -276.2,-86.3l-95.9,5.8l-5.8,207.2l-5.8,205.2l136.2,0c80.6,-0.1 157.4,-11.6 190,-26.9zm-28.8,-805.7c115.1,-48 159.2,-168.8 103.6,-289.6c-34.5,-74.8 -109.3,-105.5 -264.7,-105.5l-134.3,0l0,197.6c0,109.3 5.8,205.2 13.4,211c23.1,23 216.8,13.4 282,-13.5z"/>
    </g>
   </g>
  </g>
 </g>
</svg>