<?xml version="1.0" encoding="utf-8"?>
<!-- Generator: Adobe Illustrator 24.0.0, SVG Export Plug-In . SVG Version: 6.00 Build 0)  -->
<svg version="1.1" id="Capa_1" xmlns="http://www.w3.org/2000/svg" xmlns:xlink="http://www.w3.org/1999/xlink" x="0px" y="0px"
	 viewBox="0 0 90 85" style="enable-background:new 0 0 90 85;" xml:space="preserve">
<style type="text/css">
	.st0{fill:#FF972B;}
</style>
<title>contenido neto</title>
<desc>Created with Sketch.</desc>
<g>
	<g>
		<g>
			<path class="st0" d="M73,46.8l8.7-4.4L73,38.3c0.2,1.3,0.3,2.6,0.3,3.9C73.3,43.8,73.2,45.3,73,46.8z"/>
		</g>
		<g>
			<path class="st0" d="M76.7,24.2l-9.6,0.7c1.8,2.2,3.2,4.7,4.3,7.4L76.7,24.2z"/>
		</g>
		<g>
			<path class="st0" d="M63.3,10.8l-8,5.4c2.7,1.1,5.2,2.5,7.4,4.3L63.3,10.8z"/>
		</g>
		<g>
			<path class="st0" d="M49.3,14.5L45,5.9l-4.2,8.6c1.3-0.2,2.6-0.3,3.9-0.3C46.3,14.2,47.8,14.3,49.3,14.5z"/>
		</g>
		<g>
			<path class="st0" d="M26.7,10.8l0.7,9.6c2.2-1.8,4.7-3.2,7.4-4.3L26.7,10.8z"/>
		</g>
		<g>
			<path class="st0" d="M13.3,24.2l5.4,8c1.1-2.7,2.5-5.2,4.3-7.4L13.3,24.2z"/>
		</g>
		<g>
			<path class="st0" d="M17,38.2l-8.7,4.4l8.6,4.2c-0.2-1.3-0.3-2.6-0.3-3.9C16.7,41.2,16.8,39.7,17,38.2z"/>
		</g>
		<g>
			<path class="st0" d="M13.3,60.8l9.6-0.7c-1.8-2.2-3.2-4.7-4.3-7.4L13.3,60.8z"/>
		</g>
		<g>
			<path class="st0" d="M34.7,68.8c-2.7-1.1-5.2-2.5-7.4-4.3l-0.6,9.7L34.7,68.8z"/>
		</g>
		<g>
			<path class="st0" d="M40.7,70.5l4.4,8.7l4.2-8.6c-1.3,0.2-2.6,0.3-3.9,0.3C43.7,70.8,42.2,70.7,40.7,70.5z"/>
		</g>
		<g>
			<path class="st0" d="M63.3,74.2l-0.7-9.6c-2.2,1.8-4.7,3.2-7.4,4.3L63.3,74.2z"/>
		</g>
		<g>
			<path class="st0" d="M76.7,60.8l-5.4-8c-1.1,2.7-2.5,5.2-4.3,7.4L76.7,60.8z"/>
		</g>
	</g>
	<g>
		<path class="st0" d="M34.7,38.5c-0.5,0-1,0.1-1.3,0.3c-0.4,0.2-0.5,0.6-0.5,1c0,0.5,0.2,0.8,0.5,1c0.4,0.2,1.1,0.5,2.2,0.8
			c1.1,0.3,2,0.7,2.6,1.2C38.7,43.3,39,44,39,45c0,1-0.4,1.8-1.1,2.4c-0.7,0.6-1.7,0.9-2.9,0.9c-1.7,0-3.3-0.6-4.6-1.8l1.2-1.4
			c1.1,1,2.3,1.5,3.5,1.5c0.6,0,1.1-0.1,1.4-0.4c0.4-0.3,0.5-0.6,0.5-1c0-0.4-0.2-0.8-0.5-1c-0.3-0.2-0.9-0.5-1.7-0.7
			c-0.8-0.2-1.4-0.4-1.9-0.5c-0.4-0.2-0.8-0.4-1.1-0.6c-0.7-0.5-1-1.3-1-2.3c0-1,0.4-1.8,1.1-2.4c0.7-0.6,1.7-0.8,2.8-0.8
			c0.7,0,1.4,0.1,2.1,0.4c0.7,0.2,1.3,0.6,1.8,1l-1,1.4c-0.3-0.3-0.8-0.5-1.3-0.7C35.8,38.6,35.2,38.5,34.7,38.5z"/>
		<path class="st0" d="M48.8,38c0.8,0.6,1.2,1.6,1.2,3c0,1.3-0.4,2.3-1.2,3c-0.8,0.6-2,0.9-3.6,0.9h-2v3.3h-1.9V37h3.8
			C46.8,37,48.1,37.3,48.8,38z M47.5,42.6c0.4-0.4,0.6-1,0.6-1.8c0-0.8-0.2-1.3-0.7-1.6c-0.5-0.3-1.2-0.5-2.2-0.5h-1.9v4.5h2.2
			C46.4,43.2,47.1,43,47.5,42.6z"/>
		<path class="st0" d="M54.1,38.8v3.1H59v1.7h-4.9v4.6h-1.9V37h7.4l0,1.8H54.1z"/>
	</g>
</g>
</svg>
